# xmcd CD database file
#
# Track frame offsets:
#	150
#	15695
#	33577
#	50327
#
# Disc length: 860 seconds
#
# Revision: 6
# Processed by: cddbd v1.5.2PL0 Copyright (c) Steve Scherf et al.
# Submitted via: CDex 1.70beta2
#
DISCID=2a035a04
DTITLE=Chelsea - Jennifer Adams
DYEAR=2000
DGENRE=Blues
TTITLE0=Jennifer Adams
TTITLE1=Jennifer Adams (Psyched Up)
TTITLE2=Jennifer Adams (Stripped Dowm)
TTITLE3=I want the World (to stop from Turning)
EXTD=YEAR: 2000
EXTT0=
EXTT1=
EXTT2=
EXTT3=
PLAYORDER=
